{
 "cells": [
  {
   "cell_type": "code",
   "execution_count": 13,
   "metadata": {},
   "outputs": [
    {
     "name": "stdout",
     "output_type": "stream",
     "text": [
      "/root/repositories/Wav2Lip-CodeFormer\n"
     ]
    },
    {
     "name": "stdout",
     "output_type": "stream",
     "text": [
      "/root/repositories/Wav2Lip-CodeFormer/CodeFormer\n"
     ]
    }
   ],
   "source": [
    "%cd /root/repositories/Wav2Lip-CodeFormer\n",
    "%rm -rf ./images\n",
    "%mkdir images\n",
    "\n",
    "%cd /root/repositories/Wav2Lip-CodeFormer/CodeFormer\n",
    "%rm -rf ./results\n",
    "%mkdir results "
   ]
  },
  {
   "cell_type": "code",
   "execution_count": 14,
   "metadata": {},
   "outputs": [
    {
     "name": "stdout",
     "output_type": "stream",
     "text": [
      "/root/repositories/Wav2Lip-CodeFormer/Wav2Lip\n",
      "Using cuda for inference.\n",
      "Reading video frames...\n",
      "Number of frames available for inference: 169\n",
      "/root/repositories/Wav2Lip-CodeFormer/Wav2Lip/audio.py:100: FutureWarning: Pass sr=16000, n_fft=800 as keyword args. From version 0.10 passing these as positional arguments will result in an error\n",
      "  return librosa.filters.mel(hp.sample_rate, hp.n_fft, n_mels=hp.num_mels,\n",
      "(80, 451)\n",
      "Length of mel chunks: 165\n",
      "  0%|                                                     | 0/2 [00:00<?, ?it/s]\n",
      "  0%|                                                    | 0/11 [00:00<?, ?it/s]\u001b[A\n",
      "  9%|████                                        | 1/11 [00:03<00:31,  3.11s/it]\u001b[A\n",
      " 18%|████████                                    | 2/11 [00:03<00:12,  1.37s/it]\u001b[A\n",
      " 27%|████████████                                | 3/11 [00:03<00:06,  1.26it/s]\u001b[A\n",
      " 36%|████████████████                            | 4/11 [00:03<00:03,  1.90it/s]\u001b[A\n",
      " 45%|████████████████████                        | 5/11 [00:03<00:02,  2.66it/s]\u001b[A\n",
      " 55%|████████████████████████                    | 6/11 [00:03<00:01,  3.50it/s]\u001b[A\n",
      " 64%|████████████████████████████                | 7/11 [00:03<00:00,  4.36it/s]\u001b[A\n",
      " 73%|████████████████████████████████            | 8/11 [00:03<00:00,  5.22it/s]\u001b[A\n",
      " 82%|████████████████████████████████████        | 9/11 [00:04<00:00,  5.99it/s]\u001b[A\n",
      " 91%|███████████████████████████████████████    | 10/11 [00:04<00:00,  6.64it/s]\u001b[A\n",
      "100%|███████████████████████████████████████████| 11/11 [00:04<00:00,  2.33it/s]\u001b[A\n",
      "Load checkpoint from: checkpoints/wav2lip_gan.pth\n",
      "Model loaded\n",
      "100%|█████████████████████████████████████████████| 2/2 [00:10<00:00,  5.16s/it]\n",
      "ffmpeg version 4.4.2-0ubuntu0.22.04.1 Copyright (c) 2000-2021 the FFmpeg developers\n",
      "  built with gcc 11 (Ubuntu 11.2.0-19ubuntu1)\n",
      "  configuration: --prefix=/usr --extra-version=0ubuntu0.22.04.1 --toolchain=hardened --libdir=/usr/lib/x86_64-linux-gnu --incdir=/usr/include/x86_64-linux-gnu --arch=amd64 --enable-gpl --disable-stripping --enable-gnutls --enable-ladspa --enable-libaom --enable-libass --enable-libbluray --enable-libbs2b --enable-libcaca --enable-libcdio --enable-libcodec2 --enable-libdav1d --enable-libflite --enable-libfontconfig --enable-libfreetype --enable-libfribidi --enable-libgme --enable-libgsm --enable-libjack --enable-libmp3lame --enable-libmysofa --enable-libopenjpeg --enable-libopenmpt --enable-libopus --enable-libpulse --enable-librabbitmq --enable-librubberband --enable-libshine --enable-libsnappy --enable-libsoxr --enable-libspeex --enable-libsrt --enable-libssh --enable-libtheora --enable-libtwolame --enable-libvidstab --enable-libvorbis --enable-libvpx --enable-libwebp --enable-libx265 --enable-libxml2 --enable-libxvid --enable-libzimg --enable-libzmq --enable-libzvbi --enable-lv2 --enable-omx --enable-openal --enable-opencl --enable-opengl --enable-sdl2 --enable-pocketsphinx --enable-librsvg --enable-libmfx --enable-libdc1394 --enable-libdrm --enable-libiec61883 --enable-chromaprint --enable-frei0r --enable-libx264 --enable-shared\n",
      "  libavutil      56. 70.100 / 56. 70.100\n",
      "  libavcodec     58.134.100 / 58.134.100\n",
      "  libavformat    58. 76.100 / 58. 76.100\n",
      "  libavdevice    58. 13.100 / 58. 13.100\n",
      "  libavfilter     7.110.100 /  7.110.100\n",
      "  libswscale      5.  9.100 /  5.  9.100\n",
      "  libswresample   3.  9.100 /  3.  9.100\n",
      "  libpostproc    55.  9.100 / 55.  9.100\n",
      "\u001b[0;33mGuessed Channel Layout for Input Stream #0.0 : stereo\n",
      "\u001b[0mInput #0, wav, from '../input/generated.wav':\n",
      "  Metadata:\n",
      "    encoder         : Lavf58.76.100\n",
      "  Duration: 00:00:05.63, bitrate: 1411 kb/s\n",
      "  Stream #0:0: Audio: pcm_s16le ([1][0][0][0] / 0x0001), 44100 Hz, stereo, s16, 1411 kb/s\n",
      "Input #1, avi, from 'temp/result.avi':\n",
      "  Metadata:\n",
      "    software        : Lavf59.27.100\n",
      "  Duration: 00:00:05.51, start: 0.000000, bitrate: 276 kb/s\n",
      "  Stream #1:0: Video: mpeg4 (Simple Profile) (DIVX / 0x58564944), yuv420p, 256x256 [SAR 1:1 DAR 1:1], 264 kb/s, 29.93 fps, 29.92 tbr, 29.93 tbn, 2993 tbc\n",
      "Stream mapping:\n",
      "  Stream #1:0 -> #0:0 (mpeg4 (native) -> h264 (libx264))\n",
      "  Stream #0:0 -> #0:1 (pcm_s16le (native) -> aac (native))\n",
      "Press [q] to stop, [?] for help\n",
      "\u001b[1;36m[libx264 @ 0x5649036b9f40] \u001b[0m\u001b[0;33m-qscale is ignored, -crf is recommended.\n",
      "\u001b[0m\u001b[1;36m[libx264 @ 0x5649036b9f40] \u001b[0musing SAR=1/1\n",
      "\u001b[1;36m[libx264 @ 0x5649036b9f40] \u001b[0musing cpu capabilities: MMX2 SSE2Fast SSSE3 SSE4.2 AVX FMA3 BMI2 AVX2\n",
      "\u001b[1;36m[libx264 @ 0x5649036b9f40] \u001b[0mprofile High, level 1.3, 4:2:0, 8-bit\n",
      "\u001b[1;36m[libx264 @ 0x5649036b9f40] \u001b[0m264 - core 163 r3060 5db6aa6 - H.264/MPEG-4 AVC codec - Copyleft 2003-2021 - http://www.videolan.org/x264.html - options: cabac=1 ref=3 deblock=1:0:0 analyse=0x3:0x113 me=hex subme=7 psy=1 psy_rd=1.00:0.00 mixed_ref=1 me_range=16 chroma_me=1 trellis=1 8x8dct=1 cqm=0 deadzone=21,11 fast_pskip=1 chroma_qp_offset=-2 threads=8 lookahead_threads=1 sliced_threads=0 nr=0 decimate=1 interlaced=0 bluray_compat=0 constrained_intra=0 bframes=3 b_pyramid=2 b_adapt=1 b_bias=0 direct=1 weightb=1 open_gop=0 weightp=2 keyint=250 keyint_min=25 scenecut=40 intra_refresh=0 rc_lookahead=40 rc=crf mbtree=1 crf=23.0 qcomp=0.60 qpmin=0 qpmax=69 qpstep=4 ip_ratio=1.40 aq=1:1.00\n",
      "Output #0, mp4, to 'results/result_voice.mp4':\n",
      "  Metadata:\n",
      "    encoder         : Lavf58.76.100\n",
      "  Stream #0:0: Video: h264 (avc1 / 0x31637661), yuv420p(progressive), 256x256 [SAR 1:1 DAR 1:1], q=2-31, 29.92 fps, 11488 tbn\n",
      "    Metadata:\n",
      "      encoder         : Lavc58.134.100 libx264\n",
      "    Side data:\n",
      "      cpb: bitrate max/min/avg: 0/0/0 buffer size: 0 vbv_delay: N/A\n",
      "  Stream #0:1: Audio: aac (LC) (mp4a / 0x6134706D), 44100 Hz, stereo, fltp, 128 kb/s\n",
      "    Metadata:\n",
      "      encoder         : Lavc58.134.100 aac\n",
      "frame=  165 fps=0.0 q=-1.0 Lsize=     171kB time=00:00:05.61 bitrate= 249.7kbits/s speed=46.2x    \n",
      "video:75kB audio:89kB subtitle:0kB other streams:0kB global headers:0kB muxing overhead: 4.060757%\n",
      "\u001b[1;36m[libx264 @ 0x5649036b9f40] \u001b[0mframe I:1     Avg QP:21.05  size:  3860\n",
      "\u001b[1;36m[libx264 @ 0x5649036b9f40] \u001b[0mframe P:116   Avg QP:22.51  size:   552\n",
      "\u001b[1;36m[libx264 @ 0x5649036b9f40] \u001b[0mframe B:48    Avg QP:21.97  size:   177\n",
      "\u001b[1;36m[libx264 @ 0x5649036b9f40] \u001b[0mconsecutive B-frames: 55.8% 15.8%  1.8% 26.7%\n",
      "\u001b[1;36m[libx264 @ 0x5649036b9f40] \u001b[0mmb I  I16..4: 18.8% 75.0%  6.2%\n",
      "\u001b[1;36m[libx264 @ 0x5649036b9f40] \u001b[0mmb P  I16..4:  1.1%  2.9%  0.0%  P16..4: 32.2% 10.3%  5.3%  0.0%  0.0%    skip:48.2%\n",
      "\u001b[1;36m[libx264 @ 0x5649036b9f40] \u001b[0mmb B  I16..4:  0.2%  0.5%  0.0%  B16..8: 34.6%  1.6%  0.1%  direct: 1.5%  skip:61.5%  L0:42.8% L1:55.1% BI: 2.1%\n",
      "\u001b[1;36m[libx264 @ 0x5649036b9f40] \u001b[0m8x8 transform intra:72.0% inter:85.8%\n",
      "\u001b[1;36m[libx264 @ 0x5649036b9f40] \u001b[0mcoded y,uvDC,uvAC intra: 25.6% 31.7% 2.9% inter: 8.6% 7.2% 0.0%\n",
      "\u001b[1;36m[libx264 @ 0x5649036b9f40] \u001b[0mi16 v,h,dc,p: 54% 12% 28%  6%\n",
      "\u001b[1;36m[libx264 @ 0x5649036b9f40] \u001b[0mi8 v,h,dc,ddl,ddr,vr,hd,vl,hu: 25% 14% 53%  1%  2%  2%  2%  1%  1%\n",
      "\u001b[1;36m[libx264 @ 0x5649036b9f40] \u001b[0mi4 v,h,dc,ddl,ddr,vr,hd,vl,hu: 34% 14% 11%  4% 11% 13%  6%  3%  4%\n",
      "\u001b[1;36m[libx264 @ 0x5649036b9f40] \u001b[0mi8c dc,h,v,p: 61% 16% 21%  2%\n",
      "\u001b[1;36m[libx264 @ 0x5649036b9f40] \u001b[0mWeighted P-Frames: Y:0.0% UV:0.0%\n",
      "\u001b[1;36m[libx264 @ 0x5649036b9f40] \u001b[0mref P L0: 67.1% 16.5% 11.6%  4.8%\n",
      "\u001b[1;36m[libx264 @ 0x5649036b9f40] \u001b[0mref B L0: 87.5%  9.1%  3.4%\n",
      "\u001b[1;36m[libx264 @ 0x5649036b9f40] \u001b[0mref B L1: 97.2%  2.8%\n",
      "\u001b[1;36m[libx264 @ 0x5649036b9f40] \u001b[0mkb/s:110.80\n",
      "\u001b[1;36m[aac @ 0x5649036bb3c0] \u001b[0mQavg: 2123.702\n"
     ]
    }
   ],
   "source": [
    "%cd /root/repositories/Wav2Lip-CodeFormer/Wav2Lip \n",
    "!python inference.py --checkpoint_path checkpoints/wav2lip_gan.pth --face '../input/driving.mp4' --audio '../input/generated.wav'"
   ]
  },
  {
   "cell_type": "code",
   "execution_count": 15,
   "metadata": {},
   "outputs": [
    {
     "name": "stdout",
     "output_type": "stream",
     "text": [
      "/root/repositories/Wav2Lip-CodeFormer/Wav2Lip\n",
      "FPS:  29.916666666666668 Frames:  165\n"
     ]
    },
    {
     "name": "stderr",
     "output_type": "stream",
     "text": [
      "  0%|          | 0/165 [00:00<?, ?it/s]"
     ]
    },
    {
     "name": "stderr",
     "output_type": "stream",
     "text": [
      "100%|██████████| 165/165 [00:00<00:00, 1216.12it/s]\n"
     ]
    }
   ],
   "source": [
    "%cd /root/repositories/Wav2Lip-CodeFormer/Wav2Lip\n",
    "\n",
    "import cv2\n",
    "from tqdm import tqdm\n",
    "from os import path\n",
    "import os\n",
    "\n",
    "vidcap = cv2.VideoCapture(\"/root/repositories/Wav2Lip-CodeFormer/Wav2Lip/results/result_voice.mp4\")\n",
    "numberOfFrames = int(vidcap.get(cv2.CAP_PROP_FRAME_COUNT))\n",
    "fps = vidcap.get(cv2.CAP_PROP_FPS)\n",
    "print(\"FPS: \", fps, \"Frames: \", numberOfFrames)\n",
    "\n",
    "for frameNumber in tqdm(range(numberOfFrames)):\n",
    "    _,image = vidcap.read()\n",
    "    cv2.imwrite(path.join('/root/repositories/Wav2Lip-CodeFormer/images', str(frameNumber).zfill(4)+'.jpg'), image)"
   ]
  },
  {
   "cell_type": "code",
   "execution_count": 16,
   "metadata": {},
   "outputs": [
    {
     "name": "stdout",
     "output_type": "stream",
     "text": [
      "/root/repositories/Wav2Lip-CodeFormer/CodeFormer\n"
     ]
    }
   ],
   "source": [
    "%cd /root/repositories/Wav2Lip-CodeFormer/CodeFormer\n",
    "\n",
    "import cv2\n",
    "import matplotlib.pyplot as plt\n",
    "def display(img1, img2):\n",
    "  fig = plt.figure(figsize=(25, 10))\n",
    "  ax1 = fig.add_subplot(1, 2, 1) \n",
    "  plt.title('Input', fontsize=16)\n",
    "  ax1.axis('off')\n",
    "  ax2 = fig.add_subplot(1, 2, 2)\n",
    "  plt.title('CodeFormer', fontsize=16)\n",
    "  ax2.axis('off')\n",
    "  ax1.imshow(img1)\n",
    "  ax2.imshow(img2)\n",
    "def imread(img_path):\n",
    "  img = cv2.imread(img_path)\n",
    "  img = cv2.cvtColor(img, cv2.COLOR_BGR2RGB)\n",
    "  return img"
   ]
  },
  {
   "cell_type": "code",
   "execution_count": 17,
   "metadata": {},
   "outputs": [
    {
     "name": "stdout",
     "output_type": "stream",
     "text": [
      "/root/repositories/Wav2Lip-CodeFormer/CodeFormer\n"
     ]
    },
    {
     "name": "stdout",
     "output_type": "stream",
     "text": [
      "Face detection model: retinaface_resnet50\n",
      "Background upsampling: True, Face upsampling: False\n",
      "[1/165] Processing: 0000.jpg\n",
      "\tdetect 1 faces\n",
      "[2/165] Processing: 0001.jpg\n",
      "\tdetect 1 faces\n",
      "[3/165] Processing: 0002.jpg\n",
      "\tdetect 1 faces\n",
      "[4/165] Processing: 0003.jpg\n",
      "\tdetect 1 faces\n",
      "[5/165] Processing: 0004.jpg\n",
      "\tdetect 1 faces\n",
      "[6/165] Processing: 0005.jpg\n",
      "\tdetect 1 faces\n",
      "[7/165] Processing: 0006.jpg\n",
      "\tdetect 1 faces\n",
      "[8/165] Processing: 0007.jpg\n",
      "\tdetect 1 faces\n",
      "[9/165] Processing: 0008.jpg\n",
      "\tdetect 1 faces\n",
      "[10/165] Processing: 0009.jpg\n",
      "\tdetect 1 faces\n",
      "[11/165] Processing: 0010.jpg\n",
      "\tdetect 1 faces\n",
      "[12/165] Processing: 0011.jpg\n",
      "\tdetect 1 faces\n",
      "[13/165] Processing: 0012.jpg\n",
      "\tdetect 1 faces\n",
      "[14/165] Processing: 0013.jpg\n",
      "\tdetect 1 faces\n",
      "[15/165] Processing: 0014.jpg\n",
      "\tdetect 1 faces\n",
      "[16/165] Processing: 0015.jpg\n",
      "\tdetect 1 faces\n",
      "[17/165] Processing: 0016.jpg\n",
      "\tdetect 1 faces\n",
      "[18/165] Processing: 0017.jpg\n",
      "\tdetect 1 faces\n",
      "[19/165] Processing: 0018.jpg\n",
      "\tdetect 1 faces\n",
      "[20/165] Processing: 0019.jpg\n",
      "\tdetect 1 faces\n",
      "[21/165] Processing: 0020.jpg\n",
      "\tdetect 1 faces\n",
      "[22/165] Processing: 0021.jpg\n",
      "\tdetect 1 faces\n",
      "[23/165] Processing: 0022.jpg\n",
      "\tdetect 1 faces\n",
      "[24/165] Processing: 0023.jpg\n",
      "\tdetect 1 faces\n",
      "[25/165] Processing: 0024.jpg\n",
      "\tdetect 1 faces\n",
      "[26/165] Processing: 0025.jpg\n",
      "\tdetect 1 faces\n",
      "[27/165] Processing: 0026.jpg\n",
      "\tdetect 1 faces\n",
      "[28/165] Processing: 0027.jpg\n",
      "\tdetect 1 faces\n",
      "[29/165] Processing: 0028.jpg\n",
      "\tdetect 1 faces\n",
      "[30/165] Processing: 0029.jpg\n",
      "\tdetect 1 faces\n",
      "[31/165] Processing: 0030.jpg\n",
      "\tdetect 1 faces\n",
      "[32/165] Processing: 0031.jpg\n",
      "\tdetect 1 faces\n",
      "[33/165] Processing: 0032.jpg\n",
      "\tdetect 1 faces\n",
      "[34/165] Processing: 0033.jpg\n",
      "\tdetect 1 faces\n",
      "[35/165] Processing: 0034.jpg\n",
      "\tdetect 1 faces\n",
      "[36/165] Processing: 0035.jpg\n",
      "\tdetect 1 faces\n",
      "[37/165] Processing: 0036.jpg\n",
      "\tdetect 1 faces\n",
      "[38/165] Processing: 0037.jpg\n",
      "\tdetect 1 faces\n",
      "[39/165] Processing: 0038.jpg\n",
      "\tdetect 1 faces\n",
      "[40/165] Processing: 0039.jpg\n",
      "\tdetect 1 faces\n",
      "[41/165] Processing: 0040.jpg\n",
      "\tdetect 1 faces\n",
      "[42/165] Processing: 0041.jpg\n",
      "\tdetect 1 faces\n",
      "[43/165] Processing: 0042.jpg\n",
      "\tdetect 1 faces\n",
      "[44/165] Processing: 0043.jpg\n",
      "\tdetect 1 faces\n",
      "[45/165] Processing: 0044.jpg\n",
      "\tdetect 1 faces\n",
      "[46/165] Processing: 0045.jpg\n",
      "\tdetect 1 faces\n",
      "[47/165] Processing: 0046.jpg\n",
      "\tdetect 1 faces\n",
      "[48/165] Processing: 0047.jpg\n",
      "\tdetect 1 faces\n",
      "[49/165] Processing: 0048.jpg\n",
      "\tdetect 1 faces\n",
      "[50/165] Processing: 0049.jpg\n",
      "\tdetect 1 faces\n",
      "[51/165] Processing: 0050.jpg\n",
      "\tdetect 1 faces\n",
      "[52/165] Processing: 0051.jpg\n",
      "\tdetect 1 faces\n",
      "[53/165] Processing: 0052.jpg\n",
      "\tdetect 1 faces\n",
      "[54/165] Processing: 0053.jpg\n",
      "\tdetect 1 faces\n",
      "[55/165] Processing: 0054.jpg\n",
      "\tdetect 1 faces\n",
      "[56/165] Processing: 0055.jpg\n",
      "\tdetect 1 faces\n",
      "[57/165] Processing: 0056.jpg\n",
      "\tdetect 1 faces\n",
      "[58/165] Processing: 0057.jpg\n",
      "\tdetect 1 faces\n",
      "[59/165] Processing: 0058.jpg\n",
      "\tdetect 1 faces\n",
      "[60/165] Processing: 0059.jpg\n",
      "\tdetect 1 faces\n",
      "[61/165] Processing: 0060.jpg\n",
      "\tdetect 1 faces\n",
      "[62/165] Processing: 0061.jpg\n",
      "\tdetect 1 faces\n",
      "[63/165] Processing: 0062.jpg\n",
      "\tdetect 1 faces\n",
      "[64/165] Processing: 0063.jpg\n",
      "\tdetect 1 faces\n",
      "[65/165] Processing: 0064.jpg\n",
      "\tdetect 1 faces\n",
      "[66/165] Processing: 0065.jpg\n",
      "\tdetect 1 faces\n",
      "[67/165] Processing: 0066.jpg\n",
      "\tdetect 1 faces\n",
      "[68/165] Processing: 0067.jpg\n",
      "\tdetect 1 faces\n",
      "[69/165] Processing: 0068.jpg\n",
      "\tdetect 1 faces\n",
      "[70/165] Processing: 0069.jpg\n",
      "\tdetect 1 faces\n",
      "[71/165] Processing: 0070.jpg\n",
      "\tdetect 1 faces\n",
      "[72/165] Processing: 0071.jpg\n",
      "\tdetect 1 faces\n",
      "[73/165] Processing: 0072.jpg\n",
      "\tdetect 1 faces\n",
      "[74/165] Processing: 0073.jpg\n",
      "\tdetect 1 faces\n",
      "[75/165] Processing: 0074.jpg\n",
      "\tdetect 1 faces\n",
      "[76/165] Processing: 0075.jpg\n",
      "\tdetect 1 faces\n",
      "[77/165] Processing: 0076.jpg\n",
      "\tdetect 1 faces\n",
      "[78/165] Processing: 0077.jpg\n",
      "\tdetect 1 faces\n",
      "[79/165] Processing: 0078.jpg\n",
      "\tdetect 1 faces\n",
      "[80/165] Processing: 0079.jpg\n",
      "\tdetect 1 faces\n",
      "[81/165] Processing: 0080.jpg\n",
      "\tdetect 1 faces\n",
      "[82/165] Processing: 0081.jpg\n",
      "\tdetect 1 faces\n",
      "[83/165] Processing: 0082.jpg\n",
      "\tdetect 1 faces\n",
      "[84/165] Processing: 0083.jpg\n",
      "\tdetect 1 faces\n",
      "[85/165] Processing: 0084.jpg\n",
      "\tdetect 1 faces\n",
      "[86/165] Processing: 0085.jpg\n",
      "\tdetect 1 faces\n",
      "[87/165] Processing: 0086.jpg\n",
      "\tdetect 1 faces\n",
      "[88/165] Processing: 0087.jpg\n",
      "\tdetect 1 faces\n",
      "[89/165] Processing: 0088.jpg\n",
      "\tdetect 1 faces\n",
      "[90/165] Processing: 0089.jpg\n",
      "\tdetect 1 faces\n",
      "[91/165] Processing: 0090.jpg\n",
      "\tdetect 1 faces\n",
      "[92/165] Processing: 0091.jpg\n",
      "\tdetect 1 faces\n",
      "[93/165] Processing: 0092.jpg\n",
      "\tdetect 1 faces\n",
      "[94/165] Processing: 0093.jpg\n",
      "\tdetect 1 faces\n",
      "[95/165] Processing: 0094.jpg\n",
      "\tdetect 1 faces\n",
      "[96/165] Processing: 0095.jpg\n",
      "\tdetect 1 faces\n",
      "[97/165] Processing: 0096.jpg\n",
      "\tdetect 1 faces\n",
      "[98/165] Processing: 0097.jpg\n",
      "\tdetect 1 faces\n",
      "[99/165] Processing: 0098.jpg\n",
      "\tdetect 1 faces\n",
      "[100/165] Processing: 0099.jpg\n",
      "\tdetect 1 faces\n",
      "[101/165] Processing: 0100.jpg\n",
      "\tdetect 1 faces\n",
      "[102/165] Processing: 0101.jpg\n",
      "\tdetect 1 faces\n",
      "[103/165] Processing: 0102.jpg\n",
      "\tdetect 1 faces\n",
      "[104/165] Processing: 0103.jpg\n",
      "\tdetect 1 faces\n",
      "[105/165] Processing: 0104.jpg\n",
      "\tdetect 1 faces\n",
      "[106/165] Processing: 0105.jpg\n",
      "\tdetect 1 faces\n",
      "[107/165] Processing: 0106.jpg\n",
      "\tdetect 1 faces\n",
      "[108/165] Processing: 0107.jpg\n",
      "\tdetect 1 faces\n",
      "[109/165] Processing: 0108.jpg\n",
      "\tdetect 1 faces\n",
      "[110/165] Processing: 0109.jpg\n",
      "\tdetect 1 faces\n",
      "[111/165] Processing: 0110.jpg\n",
      "\tdetect 1 faces\n",
      "[112/165] Processing: 0111.jpg\n",
      "\tdetect 1 faces\n",
      "[113/165] Processing: 0112.jpg\n",
      "\tdetect 1 faces\n",
      "[114/165] Processing: 0113.jpg\n",
      "\tdetect 1 faces\n",
      "[115/165] Processing: 0114.jpg\n",
      "\tdetect 1 faces\n",
      "[116/165] Processing: 0115.jpg\n",
      "\tdetect 1 faces\n",
      "[117/165] Processing: 0116.jpg\n",
      "\tdetect 1 faces\n",
      "[118/165] Processing: 0117.jpg\n",
      "\tdetect 1 faces\n",
      "[119/165] Processing: 0118.jpg\n",
      "\tdetect 1 faces\n",
      "[120/165] Processing: 0119.jpg\n",
      "\tdetect 1 faces\n",
      "[121/165] Processing: 0120.jpg\n",
      "\tdetect 1 faces\n",
      "[122/165] Processing: 0121.jpg\n",
      "\tdetect 1 faces\n",
      "[123/165] Processing: 0122.jpg\n",
      "\tdetect 1 faces\n",
      "[124/165] Processing: 0123.jpg\n",
      "\tdetect 1 faces\n",
      "[125/165] Processing: 0124.jpg\n",
      "\tdetect 1 faces\n",
      "[126/165] Processing: 0125.jpg\n",
      "\tdetect 1 faces\n",
      "[127/165] Processing: 0126.jpg\n",
      "\tdetect 1 faces\n",
      "[128/165] Processing: 0127.jpg\n",
      "\tdetect 1 faces\n",
      "[129/165] Processing: 0128.jpg\n",
      "\tdetect 1 faces\n",
      "[130/165] Processing: 0129.jpg\n",
      "\tdetect 1 faces\n",
      "[131/165] Processing: 0130.jpg\n",
      "\tdetect 1 faces\n",
      "[132/165] Processing: 0131.jpg\n",
      "\tdetect 1 faces\n",
      "[133/165] Processing: 0132.jpg\n",
      "\tdetect 1 faces\n",
      "[134/165] Processing: 0133.jpg\n",
      "\tdetect 1 faces\n",
      "[135/165] Processing: 0134.jpg\n",
      "\tdetect 1 faces\n",
      "[136/165] Processing: 0135.jpg\n",
      "\tdetect 1 faces\n",
      "[137/165] Processing: 0136.jpg\n",
      "\tdetect 1 faces\n",
      "[138/165] Processing: 0137.jpg\n",
      "\tdetect 1 faces\n",
      "[139/165] Processing: 0138.jpg\n",
      "\tdetect 1 faces\n",
      "[140/165] Processing: 0139.jpg\n",
      "\tdetect 1 faces\n",
      "[141/165] Processing: 0140.jpg\n",
      "\tdetect 1 faces\n",
      "[142/165] Processing: 0141.jpg\n",
      "\tdetect 1 faces\n",
      "[143/165] Processing: 0142.jpg\n",
      "\tdetect 1 faces\n",
      "[144/165] Processing: 0143.jpg\n",
      "\tdetect 1 faces\n",
      "[145/165] Processing: 0144.jpg\n",
      "\tdetect 1 faces\n",
      "[146/165] Processing: 0145.jpg\n",
      "\tdetect 1 faces\n",
      "[147/165] Processing: 0146.jpg\n",
      "\tdetect 1 faces\n",
      "[148/165] Processing: 0147.jpg\n",
      "\tdetect 1 faces\n",
      "[149/165] Processing: 0148.jpg\n",
      "\tdetect 1 faces\n",
      "[150/165] Processing: 0149.jpg\n",
      "\tdetect 1 faces\n",
      "[151/165] Processing: 0150.jpg\n",
      "\tdetect 1 faces\n",
      "[152/165] Processing: 0151.jpg\n",
      "\tdetect 1 faces\n",
      "[153/165] Processing: 0152.jpg\n",
      "\tdetect 1 faces\n",
      "[154/165] Processing: 0153.jpg\n",
      "\tdetect 1 faces\n",
      "[155/165] Processing: 0154.jpg\n",
      "\tdetect 1 faces\n",
      "[156/165] Processing: 0155.jpg\n",
      "\tdetect 1 faces\n",
      "[157/165] Processing: 0156.jpg\n",
      "\tdetect 1 faces\n",
      "[158/165] Processing: 0157.jpg\n",
      "\tdetect 1 faces\n",
      "[159/165] Processing: 0158.jpg\n",
      "\tdetect 1 faces\n",
      "[160/165] Processing: 0159.jpg\n",
      "\tdetect 1 faces\n",
      "[161/165] Processing: 0160.jpg\n",
      "\tdetect 1 faces\n",
      "[162/165] Processing: 0161.jpg\n",
      "\tdetect 1 faces\n",
      "[163/165] Processing: 0162.jpg\n",
      "\tdetect 1 faces\n",
      "[164/165] Processing: 0163.jpg\n",
      "\tdetect 1 faces\n",
      "[165/165] Processing: 0164.jpg\n",
      "\tdetect 1 faces\n",
      "\n",
      "All results are saved in results/images_0.7\n"
     ]
    }
   ],
   "source": [
    "%cd /root/repositories/Wav2Lip-CodeFormer/CodeFormer\n",
    "\n",
    "CODEFORMER_FIDELITY = 0.7\n",
    "!python inference_codeformer.py -w $CODEFORMER_FIDELITY --input_path /root/repositories/Wav2Lip-CodeFormer/images --bg_upsampler realesrgan"
   ]
  },
  {
   "cell_type": "code",
   "execution_count": 18,
   "metadata": {},
   "outputs": [
    {
     "name": "stdout",
     "output_type": "stream",
     "text": [
      "/root/repositories/Wav2Lip-CodeFormer/output\n",
      "rm: cannot remove './final.mp4': No such file or directory\n"
     ]
    }
   ],
   "source": [
    "%cd /root/repositories/Wav2Lip-CodeFormer/output\n",
    "%rm ./final.mp4\n",
    "%rm ./batch_0000.avi"
   ]
  },
  {
   "cell_type": "code",
   "execution_count": 19,
   "metadata": {},
   "outputs": [
    {
     "name": "stderr",
     "output_type": "stream",
     "text": [
      "  0%|          | 0/1 [00:00<?, ?it/s]"
     ]
    },
    {
     "name": "stdout",
     "output_type": "stream",
     "text": [
      "processing  0 600\n"
     ]
    },
    {
     "name": "stderr",
     "output_type": "stream",
     "text": []
    },
    {
     "name": "stderr",
     "output_type": "stream",
     "text": [
      "100%|██████████| 165/165 [00:02<00:00, 59.76it/s]\n",
      "100%|██████████| 1/1 [00:03<00:00,  3.44s/it]\n",
      "ffmpeg version 4.4.2-0ubuntu0.22.04.1 Copyright (c) 2000-2021 the FFmpeg developers\n",
      "  built with gcc 11 (Ubuntu 11.2.0-19ubuntu1)\n",
      "  configuration: --prefix=/usr --extra-version=0ubuntu0.22.04.1 --toolchain=hardened --libdir=/usr/lib/x86_64-linux-gnu --incdir=/usr/include/x86_64-linux-gnu --arch=amd64 --enable-gpl --disable-stripping --enable-gnutls --enable-ladspa --enable-libaom --enable-libass --enable-libbluray --enable-libbs2b --enable-libcaca --enable-libcdio --enable-libcodec2 --enable-libdav1d --enable-libflite --enable-libfontconfig --enable-libfreetype --enable-libfribidi --enable-libgme --enable-libgsm --enable-libjack --enable-libmp3lame --enable-libmysofa --enable-libopenjpeg --enable-libopenmpt --enable-libopus --enable-libpulse --enable-librabbitmq --enable-librubberband --enable-libshine --enable-libsnappy --enable-libsoxr --enable-libspeex --enable-libsrt --enable-libssh --enable-libtheora --enable-libtwolame --enable-libvidstab --enable-libvorbis --enable-libvpx --enable-libwebp --enable-libx265 --enable-libxml2 --enable-libxvid --enable-libzimg --enable-libzmq --enable-libzvbi --enable-lv2 --enable-omx --enable-openal --enable-opencl --enable-opengl --enable-sdl2 --enable-pocketsphinx --enable-librsvg --enable-libmfx --enable-libdc1394 --enable-libdrm --enable-libiec61883 --enable-chromaprint --enable-frei0r --enable-libx264 --enable-shared\n",
      "  libavutil      56. 70.100 / 56. 70.100\n",
      "  libavcodec     58.134.100 / 58.134.100\n",
      "  libavformat    58. 76.100 / 58. 76.100\n",
      "  libavdevice    58. 13.100 / 58. 13.100\n",
      "  libavfilter     7.110.100 /  7.110.100\n",
      "  libswscale      5.  9.100 /  5.  9.100\n",
      "  libswresample   3.  9.100 /  3.  9.100\n",
      "  libpostproc    55.  9.100 / 55.  9.100\n",
      "Input #0, avi, from '/root/repositories/Wav2Lip-CodeFormer/output/batch_0000.avi':\n",
      "  Metadata:\n",
      "    software        : Lavf59.27.100\n",
      "  Duration: 00:00:05.50, start: 0.000000, bitrate: 4698 kb/s\n",
      "  Stream #0:0: Video: mpeg4 (Simple Profile) (DIVX / 0x58564944), yuv420p, 1024x1024 [SAR 1:1 DAR 1:1], 4711 kb/s, 30 fps, 30 tbr, 30 tbn, 30 tbc\n",
      "Guessed Channel Layout for Input Stream #1.0 : stereo\n",
      "Input #1, wav, from '/root/repositories/Wav2Lip-CodeFormer/input/generated.wav':\n",
      "  Metadata:\n",
      "    encoder         : Lavf58.76.100\n",
      "  Duration: 00:00:05.63, bitrate: 1411 kb/s\n",
      "  Stream #1:0: Audio: pcm_s16le ([1][0][0][0] / 0x0001), 44100 Hz, stereo, s16, 1411 kb/s\n",
      "Stream mapping:\n",
      "  Stream #0:0 -> #0:0 (mpeg4 (native) -> h264 (libx264))\n",
      "  Stream #1:0 -> #0:1 (pcm_s16le (native) -> aac (native))\n",
      "Press [q] to stop, [?] for help\n",
      "[libx264 @ 0x56208a3f9bc0] using SAR=1/1\n",
      "[libx264 @ 0x56208a3f9bc0] using cpu capabilities: MMX2 SSE2Fast SSSE3 SSE4.2 AVX FMA3 BMI2 AVX2\n",
      "[libx264 @ 0x56208a3f9bc0] profile High, level 3.2, 4:2:0, 8-bit\n",
      "[libx264 @ 0x56208a3f9bc0] 264 - core 163 r3060 5db6aa6 - H.264/MPEG-4 AVC codec - Copyleft 2003-2021 - http://www.videolan.org/x264.html - options: cabac=1 ref=3 deblock=1:0:0 analyse=0x3:0x113 me=hex subme=7 psy=1 psy_rd=1.00:0.00 mixed_ref=1 me_range=16 chroma_me=1 trellis=1 8x8dct=1 cqm=0 deadzone=21,11 fast_pskip=1 chroma_qp_offset=-2 threads=24 lookahead_threads=4 sliced_threads=0 nr=0 decimate=1 interlaced=0 bluray_compat=0 constrained_intra=0 bframes=3 b_pyramid=2 b_adapt=1 b_bias=0 direct=1 weightb=1 open_gop=0 weightp=2 keyint=250 keyint_min=25 scenecut=40 intra_refresh=0 rc_lookahead=40 rc=crf mbtree=1 crf=23.0 qcomp=0.60 qpmin=0 qpmax=69 qpstep=4 ip_ratio=1.40 aq=1:1.00\n",
      "Output #0, mp4, to '/root/repositories/Wav2Lip-CodeFormer/output/final.mp4':\n",
      "  Metadata:\n",
      "    software        : Lavf59.27.100\n",
      "    encoder         : Lavf58.76.100\n",
      "  Stream #0:0: Video: h264 (avc1 / 0x31637661), yuv420p(progressive), 1024x1024 [SAR 1:1 DAR 1:1], q=2-31, 30 fps, 15360 tbn\n",
      "    Metadata:\n",
      "      encoder         : Lavc58.134.100 libx264\n",
      "    Side data:\n",
      "      cpb: bitrate max/min/avg: 0/0/0 buffer size: 0 vbv_delay: N/A\n",
      "  Stream #0:1: Audio: aac (LC) (mp4a / 0x6134706D), 44100 Hz, stereo, fltp, 128 kb/s\n",
      "    Metadata:\n",
      "      encoder         : Lavc58.134.100 aac\n",
      "frame=  165 fps=0.0 q=-1.0 Lsize=    1426kB time=00:00:05.61 bitrate=2079.1kbits/s speed=7.07x    \n",
      "video:1330kB audio:89kB subtitle:0kB other streams:0kB global headers:0kB muxing overhead: 0.509988%\n",
      "[libx264 @ 0x56208a3f9bc0] frame I:1     Avg QP:20.56  size: 21037\n",
      "[libx264 @ 0x56208a3f9bc0] frame P:48    Avg QP:21.75  size: 12782\n",
      "[libx264 @ 0x56208a3f9bc0] frame B:116   Avg QP:24.69  size:  6261\n",
      "[libx264 @ 0x56208a3f9bc0] consecutive B-frames:  6.1%  0.0%  1.8% 92.1%\n",
      "[libx264 @ 0x56208a3f9bc0] mb I  I16..4: 22.1% 77.7%  0.2%\n",
      "[libx264 @ 0x56208a3f9bc0] mb P  I16..4:  4.0% 16.9%  0.2%  P16..4: 30.5%  9.4%  4.3%  0.0%  0.0%    skip:34.7%\n",
      "[libx264 @ 0x56208a3f9bc0] mb B  I16..4:  0.4%  2.4%  0.0%  B16..8: 33.7%  4.4%  0.7%  direct: 2.7%  skip:55.7%  L0:52.6% L1:44.9% BI: 2.5%\n",
      "[libx264 @ 0x56208a3f9bc0] 8x8 transform intra:80.8% inter:86.9%\n",
      "[libx264 @ 0x56208a3f9bc0] coded y,uvDC,uvAC intra: 34.4% 21.1% 0.3% inter: 12.9% 5.6% 0.0%\n",
      "[libx264 @ 0x56208a3f9bc0] i16 v,h,dc,p: 58% 21% 14%  8%\n",
      "[libx264 @ 0x56208a3f9bc0] i8 v,h,dc,ddl,ddr,vr,hd,vl,hu: 25% 17% 43%  2%  3%  3%  4%  2%  2%\n",
      "[libx264 @ 0x56208a3f9bc0] i4 v,h,dc,ddl,ddr,vr,hd,vl,hu: 13% 15% 11%  4% 21% 10% 19%  3%  4%\n",
      "[libx264 @ 0x56208a3f9bc0] i8c dc,h,v,p: 68% 15% 16%  1%\n",
      "[libx264 @ 0x56208a3f9bc0] Weighted P-Frames: Y:0.0% UV:0.0%\n",
      "[libx264 @ 0x56208a3f9bc0] ref P L0: 53.1% 11.1% 24.8% 10.9%\n",
      "[libx264 @ 0x56208a3f9bc0] ref B L0: 84.6% 11.2%  4.2%\n",
      "[libx264 @ 0x56208a3f9bc0] ref B L1: 93.7%  6.3%\n",
      "[libx264 @ 0x56208a3f9bc0] kb/s:1979.38\n",
      "[aac @ 0x56208a3fb600] Qavg: 2123.702\n"
     ]
    },
    {
     "data": {
      "text/plain": [
       "(None, None)"
      ]
     },
     "execution_count": 19,
     "metadata": {},
     "output_type": "execute_result"
    }
   ],
   "source": [
    "import os\n",
    "import ffmpeg\n",
    "\n",
    "restoredFramesPath = '/root/repositories/Wav2Lip-CodeFormer/CodeFormer/results/images_0.7' + '/final_results/'\n",
    "processedVideoOutputPath = '/root/repositories/Wav2Lip-CodeFormer/output'\n",
    "\n",
    "dir_list = os.listdir(restoredFramesPath)\n",
    "dir_list.sort()\n",
    "\n",
    "import cv2\n",
    "import numpy as np\n",
    "\n",
    "batch = 0\n",
    "batchSize = 600\n",
    "from tqdm import tqdm\n",
    "for i in tqdm(range(0, len(dir_list), batchSize)):\n",
    "  img_array = []\n",
    "  start, end = i, i+batchSize\n",
    "  print(\"processing \", start, end)\n",
    "  for filename in  tqdm(dir_list[start:end]):\n",
    "      filename = restoredFramesPath+filename;\n",
    "      img = cv2.imread(filename)\n",
    "      if img is None:\n",
    "        continue\n",
    "      height, width, layers = img.shape\n",
    "      size = (width,height)\n",
    "      img_array.append(img)\n",
    "\n",
    "\n",
    "  out = cv2.VideoWriter(processedVideoOutputPath+'/batch_'+str(batch).zfill(4)+'.avi',cv2.VideoWriter_fourcc(*'DIVX'), 30, size)\n",
    "  batch = batch + 1\n",
    " \n",
    "  for i in range(len(img_array)):\n",
    "    out.write(img_array[i])\n",
    "  out.release()\n",
    "\n",
    "audio = ffmpeg.input(f'/root/repositories/Wav2Lip-CodeFormer/input/generated.wav')\n",
    "video = ffmpeg.input(f'/root/repositories/Wav2Lip-CodeFormer/output/batch_0000.avi')\n",
    "out = ffmpeg.output(video, audio, f'/root/repositories/Wav2Lip-CodeFormer/output/final.mp4')\n",
    "out.run()  "
   ]
  },
  {
   "cell_type": "code",
   "execution_count": null,
   "metadata": {},
   "outputs": [],
   "source": []
  }
 ],
 "metadata": {
  "kernelspec": {
   "display_name": ".venv",
   "language": "python",
   "name": "python3"
  },
  "language_info": {
   "codemirror_mode": {
    "name": "ipython",
    "version": 3
   },
   "file_extension": ".py",
   "mimetype": "text/x-python",
   "name": "python",
   "nbconvert_exporter": "python",
   "pygments_lexer": "ipython3",
   "version": "3.11.6"
  }
 },
 "nbformat": 4,
 "nbformat_minor": 2
}
